<svg xmlns="http://www.w3.org/2000/svg" xmlns:xlink="http://www.w3.org/1999/xlink" width="554" zoomAndPan="magnify" viewBox="0 0 415.5 263.250001" height="351" preserveAspectRatio="xMidYMid meet" version="1.0"><defs><g/><clipPath id="5ce0079b52"><path d="M 0.339844 0 L 414.660156 0 L 414.660156 262.503906 L 0.339844 262.503906 Z M 0.339844 0 " clip-rule="nonzero"/></clipPath><clipPath id="92e0605727"><path d="M 75.277344 75.191406 L 340.269531 75.191406 L 340.269531 187.507812 L 75.277344 187.507812 Z M 75.277344 75.191406 " clip-rule="nonzero"/></clipPath><clipPath id="98a9a20287"><path d="M 92.496094 75.191406 L 323.003906 75.191406 C 327.570312 75.191406 331.949219 77.007812 335.179688 80.234375 C 338.410156 83.464844 340.222656 87.847656 340.222656 92.414062 L 340.222656 170.285156 C 340.222656 174.851562 338.410156 179.234375 335.179688 182.460938 C 331.949219 185.691406 327.570312 187.507812 323.003906 187.507812 L 92.496094 187.507812 C 87.929688 187.507812 83.550781 185.691406 80.320312 182.460938 C 77.089844 179.234375 75.277344 174.851562 75.277344 170.285156 L 75.277344 92.414062 C 75.277344 87.847656 77.089844 83.464844 80.320312 80.234375 C 83.550781 77.007812 87.929688 75.191406 92.496094 75.191406 " clip-rule="nonzero"/></clipPath></defs><g clip-path="url(#5ce0079b52)"><path fill="#ffffff" d="M 0.339844 0 L 415.160156 0 L 415.160156 269.558594 L 0.339844 269.558594 Z M 0.339844 0 " fill-opacity="1" fill-rule="nonzero"/><path fill="#ffffff" d="M 0.339844 0 L 415.160156 0 L 415.160156 262.816406 L 0.339844 262.816406 Z M 0.339844 0 " fill-opacity="1" fill-rule="nonzero"/></g><g clip-path="url(#92e0605727)"><g clip-path="url(#98a9a20287)"><path fill="#ffdf4b" d="M 75.277344 75.191406 L 340.269531 75.191406 L 340.269531 187.507812 L 75.277344 187.507812 Z M 75.277344 75.191406 " fill-opacity="1" fill-rule="nonzero"/></g></g><g fill="#000000" fill-opacity="1"><g transform="translate(96.346258, 149.319655)"><g><path d="M 13.90625 -28.390625 L 13.90625 -20.40625 L 29.953125 -20.40625 L 29.953125 -12.453125 L 13.90625 -12.453125 L 13.90625 0 L 3.640625 0 L 3.640625 -36.328125 L 32.125 -36.328125 L 32.125 -28.390625 Z M 13.90625 -28.390625 "/></g></g></g><g fill="#000000" fill-opacity="1"><g transform="translate(129.672942, 149.319655)"><g><path d="M 12.5625 -24.765625 C 13.5625 -26.046875 14.863281 -27.003906 16.46875 -27.640625 C 18.082031 -28.273438 19.929688 -28.59375 22.015625 -28.59375 L 22.015625 -19.71875 C 21.109375 -19.820312 20.363281 -19.875 19.78125 -19.875 C 17.664062 -19.875 16.007812 -19.300781 14.8125 -18.15625 C 13.625 -17.019531 13.03125 -15.273438 13.03125 -12.921875 L 13.03125 0 L 3.171875 0 L 3.171875 -28.140625 L 12.5625 -28.140625 Z M 12.5625 -24.765625 "/></g></g></g><g fill="#000000" fill-opacity="1"><g transform="translate(152.669397, 149.319655)"><g><path d="M 17.28125 0.46875 C 14.269531 0.46875 11.550781 -0.148438 9.125 -1.390625 C 6.707031 -2.640625 4.816406 -4.375 3.453125 -6.59375 C 2.085938 -8.8125 1.40625 -11.320312 1.40625 -14.125 C 1.40625 -16.882812 2.085938 -19.375 3.453125 -21.59375 C 4.816406 -23.8125 6.703125 -25.53125 9.109375 -26.75 C 11.515625 -27.976562 14.238281 -28.59375 17.28125 -28.59375 C 20.332031 -28.59375 23.066406 -27.976562 25.484375 -26.75 C 27.910156 -25.53125 29.796875 -23.820312 31.140625 -21.625 C 32.492188 -19.425781 33.171875 -16.925781 33.171875 -14.125 C 33.171875 -11.320312 32.492188 -8.8125 31.140625 -6.59375 C 29.796875 -4.375 27.910156 -2.640625 25.484375 -1.390625 C 23.066406 -0.148438 20.332031 0.46875 17.28125 0.46875 Z M 17.28125 -7.375 C 19.007812 -7.375 20.425781 -7.96875 21.53125 -9.15625 C 22.644531 -10.351562 23.203125 -12.007812 23.203125 -14.125 C 23.203125 -16.195312 22.644531 -17.820312 21.53125 -19 C 20.425781 -20.175781 19.007812 -20.765625 17.28125 -20.765625 C 15.550781 -20.765625 14.132812 -20.175781 13.03125 -19 C 11.925781 -17.820312 11.375 -16.195312 11.375 -14.125 C 11.375 -12.007812 11.925781 -10.351562 13.03125 -9.15625 C 14.132812 -7.96875 15.550781 -7.375 17.28125 -7.375 Z M 17.28125 -7.375 "/></g></g></g><g fill="#000000" fill-opacity="1"><g transform="translate(187.241944, 149.319655)"><g><path d="M 21.484375 -28.59375 C 24.984375 -28.59375 27.796875 -27.554688 29.921875 -25.484375 C 32.046875 -23.410156 33.109375 -20.28125 33.109375 -16.09375 L 33.109375 0 L 23.25 0 L 23.25 -14.484375 C 23.25 -18.328125 21.710938 -20.25 18.640625 -20.25 C 16.941406 -20.25 15.582031 -19.691406 14.5625 -18.578125 C 13.539062 -17.472656 13.03125 -15.8125 13.03125 -13.59375 L 13.03125 0 L 3.171875 0 L 3.171875 -28.140625 L 12.5625 -28.140625 L 12.5625 -25.078125 C 13.664062 -26.210938 14.976562 -27.082031 16.5 -27.6875 C 18.03125 -28.289062 19.691406 -28.59375 21.484375 -28.59375 Z M 21.484375 -28.59375 "/></g></g></g><g fill="#000000" fill-opacity="1"><g transform="translate(223.371806, 149.319655)"><g><path d="M 22.578125 -1.140625 C 21.742188 -0.617188 20.726562 -0.222656 19.53125 0.046875 C 18.34375 0.328125 17.078125 0.46875 15.734375 0.46875 C 12.054688 0.46875 9.234375 -0.429688 7.265625 -2.234375 C 5.296875 -4.035156 4.3125 -6.71875 4.3125 -10.28125 L 4.3125 -19.71875 L 0.203125 -19.71875 L 0.203125 -27.09375 L 4.3125 -27.09375 L 4.3125 -34.40625 L 14.171875 -34.40625 L 14.171875 -27.09375 L 20.609375 -27.09375 L 20.609375 -19.71875 L 14.171875 -19.71875 L 14.171875 -10.375 C 14.171875 -9.375 14.4375 -8.585938 14.96875 -8.015625 C 15.507812 -7.441406 16.226562 -7.15625 17.125 -7.15625 C 18.269531 -7.15625 19.273438 -7.453125 20.140625 -8.046875 Z M 22.578125 -1.140625 "/></g></g></g><g fill="#000000" fill-opacity="1"><g transform="translate(246.575905, 149.319655)"><g><path d="M 3.171875 -28.140625 L 13.03125 -28.140625 L 13.03125 0 L 3.171875 0 Z M 8.09375 -31.25 C 6.300781 -31.25 4.847656 -31.75 3.734375 -32.75 C 2.628906 -33.757812 2.078125 -35.003906 2.078125 -36.484375 C 2.078125 -37.972656 2.628906 -39.21875 3.734375 -40.21875 C 4.847656 -41.226562 6.300781 -41.734375 8.09375 -41.734375 C 9.894531 -41.734375 11.347656 -41.253906 12.453125 -40.296875 C 13.566406 -39.347656 14.125 -38.128906 14.125 -36.640625 C 14.125 -35.085938 13.566406 -33.800781 12.453125 -32.78125 C 11.347656 -31.757812 9.894531 -31.25 8.09375 -31.25 Z M 8.09375 -31.25 "/></g></g></g><g fill="#000000" fill-opacity="1"><g transform="translate(262.823966, 149.319655)"><g><path d="M 31.921875 -14.015625 C 31.921875 -13.941406 31.867188 -13.128906 31.765625 -11.578125 L 11.3125 -11.578125 C 11.726562 -10.117188 12.53125 -9 13.71875 -8.21875 C 14.914062 -7.445312 16.414062 -7.0625 18.21875 -7.0625 C 19.570312 -7.0625 20.738281 -7.25 21.71875 -7.625 C 22.707031 -8.007812 23.703125 -8.632812 24.703125 -9.5 L 29.890625 -4.09375 C 27.160156 -1.050781 23.164062 0.46875 17.90625 0.46875 C 14.625 0.46875 11.734375 -0.148438 9.234375 -1.390625 C 6.742188 -2.640625 4.816406 -4.375 3.453125 -6.59375 C 2.085938 -8.8125 1.40625 -11.320312 1.40625 -14.125 C 1.40625 -16.882812 2.066406 -19.363281 3.390625 -21.5625 C 4.722656 -23.757812 6.566406 -25.476562 8.921875 -26.71875 C 11.273438 -27.96875 13.925781 -28.59375 16.875 -28.59375 C 19.675781 -28.59375 22.21875 -28.015625 24.5 -26.859375 C 26.78125 -25.703125 28.585938 -24.023438 29.921875 -21.828125 C 31.253906 -19.628906 31.921875 -17.023438 31.921875 -14.015625 Z M 16.921875 -21.59375 C 15.398438 -21.59375 14.128906 -21.160156 13.109375 -20.296875 C 12.085938 -19.429688 11.4375 -18.253906 11.15625 -16.765625 L 22.6875 -16.765625 C 22.40625 -18.253906 21.753906 -19.429688 20.734375 -20.296875 C 19.710938 -21.160156 18.441406 -21.59375 16.921875 -21.59375 Z M 16.921875 -21.59375 "/></g></g></g><g fill="#000000" fill-opacity="1"><g transform="translate(296.150639, 149.319655)"><g><path d="M 12.5625 -24.765625 C 13.5625 -26.046875 14.863281 -27.003906 16.46875 -27.640625 C 18.082031 -28.273438 19.929688 -28.59375 22.015625 -28.59375 L 22.015625 -19.71875 C 21.109375 -19.820312 20.363281 -19.875 19.78125 -19.875 C 17.664062 -19.875 16.007812 -19.300781 14.8125 -18.15625 C 13.625 -17.019531 13.03125 -15.273438 13.03125 -12.921875 L 13.03125 0 L 3.171875 0 L 3.171875 -28.140625 L 12.5625 -28.140625 Z M 12.5625 -24.765625 "/></g></g></g><g fill="#000000" fill-opacity="1"><g transform="translate(96.344231, 148.945261)"><g><path d="M 13.90625 -28.390625 L 13.90625 -20.40625 L 29.953125 -20.40625 L 29.953125 -12.453125 L 13.90625 -12.453125 L 13.90625 0 L 3.640625 0 L 3.640625 -36.328125 L 32.125 -36.328125 L 32.125 -28.390625 Z M 13.90625 -28.390625 "/></g></g></g><g fill="#000000" fill-opacity="1"><g transform="translate(129.670915, 148.945261)"><g><path d="M 12.5625 -24.765625 C 13.5625 -26.046875 14.863281 -27.003906 16.46875 -27.640625 C 18.082031 -28.273438 19.929688 -28.59375 22.015625 -28.59375 L 22.015625 -19.71875 C 21.109375 -19.820312 20.363281 -19.875 19.78125 -19.875 C 17.664062 -19.875 16.007812 -19.300781 14.8125 -18.15625 C 13.625 -17.019531 13.03125 -15.273438 13.03125 -12.921875 L 13.03125 0 L 3.171875 0 L 3.171875 -28.140625 L 12.5625 -28.140625 Z M 12.5625 -24.765625 "/></g></g></g><g fill="#000000" fill-opacity="1"><g transform="translate(152.66737, 148.945261)"><g><path d="M 17.28125 0.46875 C 14.269531 0.46875 11.550781 -0.148438 9.125 -1.390625 C 6.707031 -2.640625 4.816406 -4.375 3.453125 -6.59375 C 2.085938 -8.8125 1.40625 -11.320312 1.40625 -14.125 C 1.40625 -16.882812 2.085938 -19.375 3.453125 -21.59375 C 4.816406 -23.8125 6.703125 -25.53125 9.109375 -26.75 C 11.515625 -27.976562 14.238281 -28.59375 17.28125 -28.59375 C 20.332031 -28.59375 23.066406 -27.976562 25.484375 -26.75 C 27.910156 -25.53125 29.796875 -23.820312 31.140625 -21.625 C 32.492188 -19.425781 33.171875 -16.925781 33.171875 -14.125 C 33.171875 -11.320312 32.492188 -8.8125 31.140625 -6.59375 C 29.796875 -4.375 27.910156 -2.640625 25.484375 -1.390625 C 23.066406 -0.148438 20.332031 0.46875 17.28125 0.46875 Z M 17.28125 -7.375 C 19.007812 -7.375 20.425781 -7.96875 21.53125 -9.15625 C 22.644531 -10.351562 23.203125 -12.007812 23.203125 -14.125 C 23.203125 -16.195312 22.644531 -17.820312 21.53125 -19 C 20.425781 -20.175781 19.007812 -20.765625 17.28125 -20.765625 C 15.550781 -20.765625 14.132812 -20.175781 13.03125 -19 C 11.925781 -17.820312 11.375 -16.195312 11.375 -14.125 C 11.375 -12.007812 11.925781 -10.351562 13.03125 -9.15625 C 14.132812 -7.96875 15.550781 -7.375 17.28125 -7.375 Z M 17.28125 -7.375 "/></g></g></g><g fill="#000000" fill-opacity="1"><g transform="translate(187.239917, 148.945261)"><g><path d="M 21.484375 -28.59375 C 24.984375 -28.59375 27.796875 -27.554688 29.921875 -25.484375 C 32.046875 -23.410156 33.109375 -20.28125 33.109375 -16.09375 L 33.109375 0 L 23.25 0 L 23.25 -14.484375 C 23.25 -18.328125 21.710938 -20.25 18.640625 -20.25 C 16.941406 -20.25 15.582031 -19.691406 14.5625 -18.578125 C 13.539062 -17.472656 13.03125 -15.8125 13.03125 -13.59375 L 13.03125 0 L 3.171875 0 L 3.171875 -28.140625 L 12.5625 -28.140625 L 12.5625 -25.078125 C 13.664062 -26.210938 14.976562 -27.082031 16.5 -27.6875 C 18.03125 -28.289062 19.691406 -28.59375 21.484375 -28.59375 Z M 21.484375 -28.59375 "/></g></g></g><g fill="#000000" fill-opacity="1"><g transform="translate(223.369779, 148.945261)"><g><path d="M 22.578125 -1.140625 C 21.742188 -0.617188 20.726562 -0.222656 19.53125 0.046875 C 18.34375 0.328125 17.078125 0.46875 15.734375 0.46875 C 12.054688 0.46875 9.234375 -0.429688 7.265625 -2.234375 C 5.296875 -4.035156 4.3125 -6.71875 4.3125 -10.28125 L 4.3125 -19.71875 L 0.203125 -19.71875 L 0.203125 -27.09375 L 4.3125 -27.09375 L 4.3125 -34.40625 L 14.171875 -34.40625 L 14.171875 -27.09375 L 20.609375 -27.09375 L 20.609375 -19.71875 L 14.171875 -19.71875 L 14.171875 -10.375 C 14.171875 -9.375 14.4375 -8.585938 14.96875 -8.015625 C 15.507812 -7.441406 16.226562 -7.15625 17.125 -7.15625 C 18.269531 -7.15625 19.273438 -7.453125 20.140625 -8.046875 Z M 22.578125 -1.140625 "/></g></g></g><g fill="#000000" fill-opacity="1"><g transform="translate(246.573878, 148.945261)"><g><path d="M 3.171875 -28.140625 L 13.03125 -28.140625 L 13.03125 0 L 3.171875 0 Z M 8.09375 -31.25 C 6.300781 -31.25 4.847656 -31.75 3.734375 -32.75 C 2.628906 -33.757812 2.078125 -35.003906 2.078125 -36.484375 C 2.078125 -37.972656 2.628906 -39.21875 3.734375 -40.21875 C 4.847656 -41.226562 6.300781 -41.734375 8.09375 -41.734375 C 9.894531 -41.734375 11.347656 -41.253906 12.453125 -40.296875 C 13.566406 -39.347656 14.125 -38.128906 14.125 -36.640625 C 14.125 -35.085938 13.566406 -33.800781 12.453125 -32.78125 C 11.347656 -31.757812 9.894531 -31.25 8.09375 -31.25 Z M 8.09375 -31.25 "/></g></g></g><g fill="#000000" fill-opacity="1"><g transform="translate(262.821939, 148.945261)"><g><path d="M 31.921875 -14.015625 C 31.921875 -13.941406 31.867188 -13.128906 31.765625 -11.578125 L 11.3125 -11.578125 C 11.726562 -10.117188 12.53125 -9 13.71875 -8.21875 C 14.914062 -7.445312 16.414062 -7.0625 18.21875 -7.0625 C 19.570312 -7.0625 20.738281 -7.25 21.71875 -7.625 C 22.707031 -8.007812 23.703125 -8.632812 24.703125 -9.5 L 29.890625 -4.09375 C 27.160156 -1.050781 23.164062 0.46875 17.90625 0.46875 C 14.625 0.46875 11.734375 -0.148438 9.234375 -1.390625 C 6.742188 -2.640625 4.816406 -4.375 3.453125 -6.59375 C 2.085938 -8.8125 1.40625 -11.320312 1.40625 -14.125 C 1.40625 -16.882812 2.066406 -19.363281 3.390625 -21.5625 C 4.722656 -23.757812 6.566406 -25.476562 8.921875 -26.71875 C 11.273438 -27.96875 13.925781 -28.59375 16.875 -28.59375 C 19.675781 -28.59375 22.21875 -28.015625 24.5 -26.859375 C 26.78125 -25.703125 28.585938 -24.023438 29.921875 -21.828125 C 31.253906 -19.628906 31.921875 -17.023438 31.921875 -14.015625 Z M 16.921875 -21.59375 C 15.398438 -21.59375 14.128906 -21.160156 13.109375 -20.296875 C 12.085938 -19.429688 11.4375 -18.253906 11.15625 -16.765625 L 22.6875 -16.765625 C 22.40625 -18.253906 21.753906 -19.429688 20.734375 -20.296875 C 19.710938 -21.160156 18.441406 -21.59375 16.921875 -21.59375 Z M 16.921875 -21.59375 "/></g></g></g><g fill="#000000" fill-opacity="1"><g transform="translate(296.148612, 148.945261)"><g><path d="M 12.5625 -24.765625 C 13.5625 -26.046875 14.863281 -27.003906 16.46875 -27.640625 C 18.082031 -28.273438 19.929688 -28.59375 22.015625 -28.59375 L 22.015625 -19.71875 C 21.109375 -19.820312 20.363281 -19.875 19.78125 -19.875 C 17.664062 -19.875 16.007812 -19.300781 14.8125 -18.15625 C 13.625 -17.019531 13.03125 -15.273438 13.03125 -12.921875 L 13.03125 0 L 3.171875 0 L 3.171875 -28.140625 L 12.5625 -28.140625 Z M 12.5625 -24.765625 "/></g></g></g></svg>